<svg id="Layer_9" data-name="Layer 9" xmlns="http://www.w3.org/2000/svg" viewBox="0 0 1366 768"><title>Layer2</title><path d="M1362.3,136.91c.28-4.68.48-9.08.61-13,.64,0,1.71.77,3.08,2.16V66.34c-9.74-3.33-20.1-6.78-24.88-8.33-9.84-3.19-67.15,3.56-77.69,4.27s-76,30.14-76,30.14l-39,62.73a14.23,14.23,0,0,0,1,16.46c7,8.66,17.46,21.72,18.89,24.15,2.17,3.7,26.71-3.72,26.71-3.72l24.78-5.13c.33,2.12.69,4.3,1.05,6.52-6.14.4-12.61,1.55-17.71,4.8-7.34,4.67-22,20.39-29.54,28.75a15,15,0,0,0-3.7,12.29l2.41,15.91s32.6,26.69,37.4,26.37,18.85-6.08,26.58-5.64c1.32.08,3.5.06,6.22,0,12.8,32.95,34.56,82.06,54,96.54-.66,10.46-2.2,87,.25,109.73,2.55,23.75,7,111.59,7.77,115.47l34.94,2.11c-.2-.95-24.29-106.64-26.81-130.13s3-110.55,3.07-111.42l0-.4c5.66,2.63,11,4.46,11,4.46s20.19-.4,24.6-6.47,4-26.26.42-36.61,2.66-31.95-.47-35.59-7.93-17.76-12-20.38-9.07,8.31-10.79,11.32c-.68,1.19-4,6-8.08,11.91-.92-11-2.19-25.12-3.07-39.47,3.11-5.21,9.24-15.48,15.75-26.08l5.4,1.94s13.36,12.58,19.5,17.94c1.57,1.37,4.37,2.22,7.77,2.68V138Q1364.25,137.38,1362.3,136.91Zm-59.47,210.58c.14,2,2.36,4.14,5.4,6.14-.28,1.5-.54,2.88-.79,4.12-3.27-.31-7.16-1.94-10.88-6.72-14-17.91-32.94-51-45.59-75.51,13.66-.76,31.42-2.37,33.28-3.8,2.75-2.11-1.61-24-2.19-32.59a22.53,22.53,0,0,1,1.22-8.08c3.67,10.68,7.35,20.8,10.39,28,6.91,16.26,12.85,35.73,15.27,44-2.38,3.33-4.42,6.15-5.69,7.86C1298,318,1302.38,340.78,1302.83,347.49Zm9.66-133.14c-.31,25-.68,55.13-.06,74.34-3.7-10-9-23.86-14-35.71-3.38-8-8.12-18.42-12.78-29.22.95-3.29,1.46-6.58.47-9.93-1.07-3.64-4.43-7.13-8.69-10-.94-2.43-1.82-4.81-2.63-7.11a6.23,6.23,0,0,0,1.53.47c8.75,1.34,30.81,14.29,30.81,14.29l5.35,1.92C1312.5,213.7,1312.5,214,1312.5,214.35Zm4.4,19.77c-.28-6.7-.43-13.24-.36-19.3l11.92,4.29C1323.19,226,1318.74,231.75,1316.9,234.12Zm42.78-97.78c-15.67-3-37.29-1-43.17-.61-7.67.52-44.72,7.82-55.84,14.35s-4.4,20.51-4.4,20.51,7.34,16.35,14.77,23.42l2.38,7.36a44.79,44.79,0,0,0-14.45-5c-9.71-1.27-14.7-3.82-22.37-3.31-2.65.18-6.24.08-10.22.13-.54-3.25-1-6.41-1.51-9.43,6.34-7.33,24.49-28.55,28-35.12,4.28-8,34.36-18.68,43.56-25.07,8.32-5.79,52-.56,63.85.25C1360.15,127.6,1360,131.85,1359.68,136.34Z" style="fill:#30145a"/><path d="M1190.18,193.43l1.15-5.07-16.67-8.67s9.33-29.33,10.67-32,54-56.67,54-56.67l99.77-33.45c-13.92-2-65.71,4-75.68,4.7-10.54.71-76,30.14-76,30.14l-39,62.73a14.23,14.23,0,0,0,1,16.46c7,8.66,17.46,21.72,18.89,24.15C1170,198.4,1182.9,195.38,1190.18,193.43Z" style="fill:#45227c"/><path d="M1150.86,173.24,1176,117.37l2.71-10.83-30.19,48.62a14.23,14.23,0,0,0,1,16.46Z" style="fill:#ab7a69"/><path d="M1177.37,196.28l-17.31-11.54c4.12,5.21,7.59,9.69,8.37,11S1172.94,197,1177.37,196.28Z" style="fill:#ab7a69"/><path d="M1366,534.18c-90.81-.42-376.93-.22-474,18.19,0,0-248.4,78.86-437.9,217H1366Z" style="fill:#471c66"/><path d="M1190,215.7l15.33-18,3.59-2.11a25.94,25.94,0,0,0-5.67,2.64c-7.34,4.67-22,20.39-29.54,28.75a15,15,0,0,0-3.7,12.29l2.41,15.91,4.24-24.15Z" style="fill:#ab7a69"/><path d="M1289,358.33c-10-6-46.43-82.44-46.43-82.44,12.8,32.95,34.56,82.06,54,96.54C1296.67,372.43,1299,364.37,1289,358.33Z" style="fill:#ab7a69"/></svg>