<svg id="Ñëîé_6" data-name="Ñëîé 6" xmlns="http://www.w3.org/2000/svg" xmlns:xlink="http://www.w3.org/1999/xlink" viewBox="0 0 1366 768"><defs><linearGradient id="linear-gradient" x2="1" gradientTransform="matrix(-441, -341, -341, 441, 862.1, 733.85)" gradientUnits="userSpaceOnUse"><stop offset="0" stop-color="#332070"/><stop offset="1" stop-color="#1f1343"/></linearGradient></defs><title>Layer4</title><polyline points="1366 768 1366 480.76 609.72 439.47 0 413.39 0 768 1366 768" style="fill:#332070"/><polyline points="672.25 503.5 661.29 503.88 654.66 504.53 667.83 506.83 665.52 508.3 754 534 416.9 768 1237.7 768 1093 534 672.25 503.5" style="fill:url(#linear-gradient)"/><path d="M938,524.9s-9.14-9.61-10-9.84a21.7,21.7,0,0,1-2.7-.47c-1.52-.47-6.8-11.6-7.85-11.6s-15.35,5.16-16.17,4.69.35-29.24-.06-29.53-4.1-.12-4.69,0,.35,13.24-.12,13.59-36.1.12-36.45-.18.06-3.11-.41-3.57-24.85,0-25.78,0-.47,3.28-.47,3.28-2.34.47-2.81.47,0,13.59,0,13.59l-2.54.07-1.61-32.49s-4.22-4.84-5.47-5-5.16,4.84-5.16,4.84l-1.85,33-3.07.06c-1.87,0-14.53,7.5-14.53,7.5h-4.22c-1.41,0-.47,2.34-1.41,2.81s-21.56,12.19-21.56,12.19,36.56.94,39.14,1.64-8.2,4.69-10.31,6.09,69.61.94,70.08,0-9.38-9.84-10.08-11.49S938,524.9,938,524.9ZM826.39,500.84l-1.48-2.34,1.35.06C826.33,499.8,826.38,500.67,826.39,500.84Zm-.19-3.25-1.89,0-2.9-4.6,1-1.54,3.33-.05C825.93,493.46,826.09,495.77,826.2,497.59Zm-5.35-3.78,2.33,3.7-4.64-.14Zm-.39-2.38h.83l-.42.65Zm5.21-1-2.63,0,2.24-3.44C825.41,487.88,825.54,489.08,825.67,490.41Zm-.84-4.85.12.11-3,4.79-2,0L817,485.56C817.35,484.94,824,485.56,824.83,485.56Zm-8.07,1.75,2,3.2-2.34,0C816.55,489.29,816.67,488.18,816.76,487.32Zm-.42,4.18,3,0,.94,1.49-2.86,4.4-1.61,0C816,495.35,816.18,493.31,816.35,491.5Zm-.6,6.73,1.09,0-1.26,1.94Zm-.32,3.87,2.51-3.8,5.84.17,2.57,4.09,0,2.88-10.79.27A21.79,21.79,0,0,1,815.43,502.09Z" style="fill:#30145a"/><rect x="26.04" y="310.25" width="1" height="325.51" transform="translate(-6.54 0.41) rotate(-0.79)" style="fill:#2e1360"/><rect x="68.04" y="292.25" width="1" height="336.01" transform="translate(-6.16 0.96) rotate(-0.77)" style="fill:#2e1360"/><rect x="106.29" y="269.71" width="1" height="340.6" transform="translate(-11.59 2.98) rotate(-1.51)" style="fill:#2e1360"/><rect x="231.53" y="233.73" width="1" height="346.56" transform="translate(-8.75 5.12) rotate(-1.24)" style="fill:#2e1360"/><rect x="278.14" y="345" width="1" height="218.75" transform="translate(-2.65 1.63) rotate(-0.33)" style="fill:#2e1360"/><rect x="319.47" y="378.32" width="1" height="174.94" transform="translate(-6.91 4.82) rotate(-0.85)" style="fill:#2e1360"/><rect x="361.05" y="413" width="1" height="126.75" transform="translate(-1.65 1.26) rotate(-0.2)" style="fill:#2e1360"/><rect x="403.05" y="443" width="1" height="86.25" transform="translate(-2.46 2.05) rotate(-0.29)" style="fill:#2e1360"/><rect x="417.59" y="491.38" width="53.75" height="1" transform="translate(-50.87 932.49) rotate(-89.55)" style="fill:#2e1360"/><rect x="485.17" y="482.33" width="1" height="25.34" transform="translate(-12.85 12.94) rotate(-1.51)" style="fill:#180a3a"/><rect x="520.17" y="483" width="1" height="14" style="fill:#180a3a"/><rect x="549.5" y="478.33" width="1" height="12" style="fill:#180a3a"/><rect x="575.5" y="471" width="1" height="12" style="fill:#180a3a"/><path d="M105.31,449.46s186,.5,194,.5,9.5,3,9.5,3-121,5.5-126.5,6,15.5,6,21,6a29.48,29.48,0,0,1,8.5,1s-8.5,2.5-4.5,2.5,71,2,78,3,18.5,3,18.5,3l-73,2s66,8,85,8h29.5l-4.5,2s-68.5-2.5-65.5-1,36.5,6.5,36.5,6.5-45,.5-45,4,62,6.5,62,6.5-52,2-72,2-73.5,4-95.5,4-66-5.5-63-5.5,111.5-2.5,118.5-2.5-35.5-3-78-6.5-61,0-61,0,30.17-3.83,33.83-4.17-22.83-2-22.83-2S99.48,486,101.48,486s21-3.33,13.67-3.33-62.83-3.17-62.83-3.17,69.17-2.33,71.33-2.33-66-2.83-66-2.83,56-5,58.17-5.83-39.33-2-42.5-2.67,38.17-1.67,40.33-1.67-20.5-3.5-.5-4.17S155,460,154,458,105.31,449.46,105.31,449.46Z" style="fill:#44328e"/><rect x="598.17" y="461.67" width="1" height="15" style="fill:#180a3a"/><rect x="614.52" y="451.42" width="1" height="19.59" transform="translate(-14.33 19.75) rotate(-1.82)" style="fill:#180a3a"/><rect x="630.5" y="437.32" width="1" height="28.7" transform="translate(-20.3 29.8) rotate(-2.66)" style="fill:#180a3a"/><rect x="645.17" y="419.29" width="1" height="42.42" transform="translate(-26.41 41.46) rotate(-3.6)" style="fill:#180a3a"/><path d="M506.63,485.44q-5.14,0-10.41-.18c-42.64-1.46-114.1-46.69-212.41-134.44-73-65.18-134.43-130.79-135-131.44l2.92-2.73c.61.65,61.9,66.14,134.8,131.21,96.21,85.87,168.78,132,209.87,133.4,60.38,2.07,107-14.28,134.79-47.28,21-24.92,24.09-50.85,24.12-51.1l4,.44c-.12,1.1-3.19,27.22-24.89,53.07-12.73,15.16-29.24,27-49.09,35.23C563.09,480.8,536.67,485.44,506.63,485.44Z" style="fill:#180a3a"/><polygon points="712.18 444.08 0 653.86 0 682.38 716.83 446.83 712.18 444.08" style="fill:#54259e"/><path d="M709.73,443.78S160.05,596.36,0,640.45v14.84L712.18,444.08Z" style="fill:#180a3a"/><polygon points="0 648.34 0 655.27 245 582 0 648.34" style="fill:#d82930"/><path d="M190,208l.23,5.34-34,8.28-.38-5.44-9,.3L157,768h14.43c-.41-27.79-3.45-239.82-1.83-239.84s18.78-.3,20.52.28c1.47.49,3.92,183,4.65,239.57h13.7L200,207.12Zm-5.47,283.85-10.4.17a7.14,7.14,0,0,1-7.05-7.21l-.91-56.16a7.14,7.14,0,0,1,6.82-7.44l10.4-.17a7.14,7.14,0,0,1,7.05,7.21l.91,56.16A7.14,7.14,0,0,1,184.55,491.89ZM186,385.42l-14.8,1.21a6.77,6.77,0,0,1-7.12-6.85l-.69-42.51a6.85,6.85,0,0,1,5.75-7l14.79-2a6.75,6.75,0,0,1,7.46,6.81l.7,43.31A6.83,6.83,0,0,1,186,385.42Zm4.3-89.62L163,302.06a3.61,3.61,0,0,1-4.31-3.6l-.84-52.08a3.69,3.69,0,0,1,2.9-3.74l27.13-5.28a3.61,3.61,0,0,1,4.2,3.61l1,51.1A3.7,3.7,0,0,1,190.27,295.8Z" style="fill:#30145a"/><polygon points="217 385.13 215.38 383.25 214.1 294.2 211.18 292.42 210.14 210.46 199.97 207.12 208.5 768 225.04 768 217.31 492.58 217 385.13" style="fill:#180a3a"/><polygon points="141.22 219.87 142.49 298.41 138.52 302.75 141.5 387 138.76 389.45 140.41 490.77 146.44 768 157.03 768 146.95 216.52 141.22 219.87" style="fill:#180a3a"/><path d="M665.34,380.06l.05,1.19-8.14,1.85-.09-1.21L655,382l2.27,123.21,4-1.29s-1.34-52.57-.92-52.57,4.5-.07,4.91.06.23,56.93.23,56.93l4.17.88-2-129.33Zm.25,61.52a1.65,1.65,0,0,1-1.63,1.66l-2.49,0a1.65,1.65,0,0,1-1.69-1.6l-.2-12.5a1.64,1.64,0,0,1,1.63-1.66l2.49,0a1.65,1.65,0,0,1,1.69,1.6Zm.19-23.61a1.56,1.56,0,0,1-1.46,1.57l-3.54.27a1.57,1.57,0,0,1-1.7-1.52l-.15-9.46a1.56,1.56,0,0,1,1.38-1.57l3.54-.45a1.57,1.57,0,0,1,1.78,1.51Zm-.41-18.37-6.53,1.4a.85.85,0,0,1-1-.8l-.19-11.59a.84.84,0,0,1,.69-.83l6.5-1.18a.84.84,0,0,1,1,.8l.22,11.37A.84.84,0,0,1,665.38,399.59Z" style="fill:#30145a"/><polygon points="667.73 379.85 670.16 380.59 670.39 398.83 671.09 399.23 671.8 443.38 673.68 508.3 669.68 509.18 667.73 379.85" style="fill:#180a3a"/><polygon points="655.03 381.96 653.66 382.7 653.94 400.18 652.99 401.15 653.98 419.75 653.02 420.44 653.39 443 654.66 504.53 657.3 505.17 655.03 381.96" style="fill:#180a3a"/><path d="M144.13,223.75l-2.63-3.91C128.27,262.46,56.36,296.65,0,317.41v5.16c9.2-3.26,18.82-6.87,28.52-10.83C95.59,284.42,134.49,254.81,144.13,223.75Z" style="fill:#180a3a"/><path d="M705.25,453.13S118.51,644.05,0,681.8V701L710.85,454.8Z" style="fill:#d82930"/><path d="M710.4,451.79C637.1,475.88,89.07,656,0,684.46V701L710.85,454.8Z" style="fill:#180a3a"/><polygon points="141.9 612.95 170.62 604.86 191 619.38 139.5 636.42 141.9 612.95" style="fill:#422084"/><path d="M546.94,489.45c-24.37,0-55.42-12.53-92.5-37.36-33.34-22.32-71.7-54.62-114-96-72-70.37-129.85-140.55-130.44-141.28l-.17-4.17c.59.73,61.62,72.4,133.43,142.61,94.67,92.56,168.11,138,212.4,131.56,56-8.21,83.48-35.09,96.66-56.2,14.25-22.81,16.34-43.76,16.35-44l1.25-4,.75,3.67c.12.66,15.27,63.34,34.67,73l.17,1.67c-16.12-8-31.19-43.07-35.55-62.84a111,111,0,0,1-14.23,34.6c-13.63,21.82-42,49.6-99.47,58A64,64,0,0,1,546.94,489.45Z" style="fill:#180a3a"/><polygon points="2.25 699.63 0 589.21 0 643.65 1.13 699.88 2.25 699.63" style="fill:#180a3a"/><rect x="37.57" y="333.21" width="1" height="353.08" transform="translate(-6.59 0.54) rotate(-0.74)" style="fill:#180a3a"/><polygon points="81.13 672.63 77.69 316.23 78.69 316.22 81.94 672.06 81.13 672.63" style="fill:#180a3a"/><polygon points="125.63 656.25 118.17 293.01 119.17 292.99 126.75 656 125.63 656.25" style="fill:#180a3a"/><rect x="250.13" y="314.31" width="1" height="296.14" transform="translate(-8.18 4.53) rotate(-1.02)" style="fill:#180a3a"/><rect x="289.05" y="297.23" width="1" height="301.29" transform="translate(-4.75 3.1) rotate(-0.61)" style="fill:#180a3a"/><rect x="332.25" y="340.62" width="1" height="242.7" transform="translate(-8.48 6.23) rotate(-1.06)" style="fill:#180a3a"/><rect x="372.93" y="381.8" width="1" height="188.58" transform="translate(-7.64 6.09) rotate(-0.92)" style="fill:#180a3a"/><rect x="413.56" y="417.41" width="1" height="138.37" transform="translate(-5.88 5.07) rotate(-0.7)" style="fill:#180a3a"/><rect x="456.19" y="450.2" width="1" height="92.48" transform="translate(-5.76 5.36) rotate(-0.67)" style="fill:#180a3a"/><rect x="494.04" y="472.81" width="1" height="56.28" transform="matrix(1, 0, 0, 1, -2.5, 2.48)" style="fill:#180a3a"/><rect x="529.26" y="485.21" width="1" height="31.32" style="fill:#180a3a"/><rect x="550.9" y="494.75" width="19.27" height="1" transform="translate(50.15 1042.04) rotate(-88.43)" style="fill:#180a3a"/><rect x="583.51" y="479.38" width="1" height="18.97" transform="matrix(1, -0.02, 0.02, 1, -7.84, 9.52)" style="fill:#180a3a"/><rect x="606.31" y="469.95" width="1" height="19.39" transform="translate(-4.29 5.47) rotate(-0.52)" style="fill:#180a3a"/><rect x="622.17" y="460.9" width="1" height="23.85" transform="translate(-7.57 10.14) rotate(-0.93)" style="fill:#180a3a"/><polygon points="638.88 479.61 638.67 446.33 639.47 445.56 639.88 479.6 638.88 479.61" style="fill:#180a3a"/><polygon points="650.79 474.39 650.67 431.67 651.36 430.31 651.79 474.38 650.79 474.39" style="fill:#180a3a"/><rect x="663.81" y="407.08" width="1" height="62.92" style="fill:#180a3a"/><polygon points="679.11 465.57 678.15 414.81 678.81 416.56 680.11 465.55 679.11 465.57" style="fill:#180a3a"/><path d="M158.68,298.46l-.84-52.08a3.69,3.69,0,0,1,2.9-3.74l.49-.1c-1.69-.6-4.89-1.36-6.56.79-2.33,3-1,55-.33,58.67.28,1.55,3.13,1,6.31-.25A3.77,3.77,0,0,1,158.68,298.46Z" style="fill:#a31022"/><polygon points="217 385.13 215.38 383.25 214.1 294.2 211.18 292.42 210.14 210.46 206.05 209.12 217.33 651.67 220.97 768 225.04 768 217.31 492.58 217 385.13" style="fill:#d82930"/><path d="M173.86,492c-3.7-.1-7.13-2.44-7.19-6.38l-2.33-55c-.05-3.3,3.82-8.11,6.65-9.07-3.72-.66-10-.42-11.24,2.4-1.75,4,.33,59.67,2.25,66.33C162.76,493,167.93,493.24,173.86,492Z" style="fill:#d82930"/><path d="M169.05,386.44a6.92,6.92,0,0,1-5-6.66l-.69-42.51a6.85,6.85,0,0,1,5.75-7h.11c-3.06-.57-8.75.48-11.21,2-4,2.5-1.5,50-.5,53.75C158,388,163.84,387.42,169.05,386.44Z" style="fill:#d82930"/><rect x="161.33" y="258.27" width="1" height="384.73" transform="translate(-3.99 1.45) rotate(-0.51)" style="fill:#180a3a"/><path d="M171,421.6c2.62-.21,5.25-.36,7.88-.42a42.75,42.75,0,0,1,7.91.42,3.78,3.78,0,0,1,1.9.8,5.48,5.48,0,0,1,.62,2c.23,1.31.38,2.62.51,3.93.26,2.62.44,5.25.6,7.88q.42,7.89.62,15.78t.21,15.79l-.6-15.77c-.21-5.26-.42-10.51-.74-15.76-.15-2.62-.31-5.25-.55-7.86-.12-1.31-.27-2.61-.48-3.9a5.88,5.88,0,0,0-.51-1.78,3.53,3.53,0,0,0-1.67-.71,43,43,0,0,0-7.82-.55Q174.93,421.4,171,421.6Z" style="fill:#ab1624"/><path d="M170,330a66.67,66.67,0,0,1,14.13-1.41,15.38,15.38,0,0,1,3.56.49,5.3,5.3,0,0,1,1.67.78,2.53,2.53,0,0,1,.64.72,5.73,5.73,0,0,1,.37.85,33.26,33.26,0,0,1,1.2,7c.38,4.73.49,9.47.5,14.21s-.11,9.47-.32,14.2q0-7.1-.06-14.2c-.09-4.73-.2-9.46-.61-14.17a33,33,0,0,0-1.13-6.93,2.64,2.64,0,0,0-.86-1.37,4.88,4.88,0,0,0-1.53-.71,16.41,16.41,0,0,0-3.46-.52,51,51,0,0,0-7.07.19Q173.51,329.44,170,330Z" style="fill:#d82930"/><path d="M162.75,242.25a164.17,164.17,0,0,1,19.31-4.37,45.38,45.38,0,0,1,4.94-.5,13.38,13.38,0,0,1,2.51.11,3.67,3.67,0,0,1,1.24.4,1.13,1.13,0,0,1,.48.55,4.29,4.29,0,0,1,.23.61,30.4,30.4,0,0,1,.82,4.92q.26,2.47.41,4.94c.37,6.6.5,13.2.59,19.8l.07,9.9-.1,9.9L193,268.71c-.14-6.6-.33-13.19-.76-19.77-.11-1.64-.21-3.29-.38-4.93a30,30,0,0,0-.76-4.84c-.12-.37-.25-.8-.52-.92a3.3,3.3,0,0,0-1.1-.36,13,13,0,0,0-2.43-.13,45,45,0,0,0-4.91.46c-3.26.46-6.5,1.1-9.72,1.8S165.95,241.44,162.75,242.25Z" style="fill:#d82930"/><path d="M190.15,528.43c-3.42.14-6.85.19-10.27.28-1.71,0-3.42.07-5.13.09l-5.13.06.71-.71q.33,9.59.51,19.17l.16,9.59.09,9.59q0,9.59,0,19.18c-.08,6.39-.2,12.79-.43,19.19-.4-6.39-.69-12.78-.93-19.17s-.4-12.78-.53-19.17l-.16-9.59-.09-9.59q-.06-9.59,0-19.18v-.74l.71,0,5.13.2c1.71.07,3.42.14,5.13.23C183.31,528.06,186.73,528.2,190.15,528.43Z" style="fill:#d82930"/><polygon points="297.33 567 558.67 488.33 275.5 571 297.33 567" style="fill:#d82930"/><polygon points="206.13 610.69 206.46 629.75 216.67 626.92 216.17 608.42 206.13 610.69" style="fill:#180a3a"/><polygon points="192.56 612.19 192.89 634.24 206.44 629.65 206.21 610.88 192.56 612.19" style="fill:#30145a"/><path d="M664.82,386.58c-1.63.25-3.27.48-4.88.78l-1.19.26a3.18,3.18,0,0,0-1,.38,2.74,2.74,0,0,0,0,.45c0,.2,0,.4,0,.61,0,.41,0,.82,0,1.23,0,3.29.19,6.59.15,9.89-.19-1.64-.32-3.29-.44-4.93s-.17-3.3-.22-5c0-.41,0-.83,0-1.24,0-.21,0-.42,0-.63a1.35,1.35,0,0,1,.19-.74,3.13,3.13,0,0,1,1.26-.49c.41-.1.82-.16,1.23-.22A44.2,44.2,0,0,1,664.82,386.58Z" style="fill:#d82930"/><path d="M662.58,407c-.51,0-1,.09-1.52.18a5.33,5.33,0,0,0-1.43.36,1,1,0,0,0-.26.18.34.34,0,0,0-.11.23,5.57,5.57,0,0,0-.06.72c0,.5,0,1,0,1.52,0,2,0,4.09-.17,6.14-.14-1-.21-2-.26-3.07s-.08-2-.07-3.08c0-.51,0-1,.06-1.55a5.72,5.72,0,0,1,.11-.8.74.74,0,0,1,.25-.43,1.37,1.37,0,0,1,.39-.22A7.61,7.61,0,0,1,662.58,407Z" style="fill:#d82930"/><path d="M663.33,427.5a17.63,17.63,0,0,0-2.11.28,3.93,3.93,0,0,0-1,.3c-.15.08-.24.16-.27.27a4.37,4.37,0,0,0,0,.5c0,1.41,0,2.84,0,4.27,0,2.85,0,5.71-.16,8.56-.13-1.43-.19-2.85-.25-4.28s-.06-2.85-.09-4.28,0-2.85.12-4.29a4,4,0,0,1,.08-.57.76.76,0,0,1,.46-.45,4,4,0,0,1,1.08-.25A13.11,13.11,0,0,1,663.33,427.5Z" style="fill:#d82930"/><polygon points="665.56 466 665.58 470.5 669.1 469.31 669.02 464.85 665.56 466" style="fill:#30145a"/><polygon points="672.4 463.77 672.52 468.13 669.1 469.31 669.02 464.85 672.4 463.77" style="fill:#180a3a"/><polygon points="668.5 381.5 670.75 508.25 670.25 508.25 668.5 381.5" style="fill:#d82930"/><path d="M210.14,210.46q9.81,11.27,19.79,22.39t20,22.23c13.39,14.75,26.82,29.45,40.52,43.91S317.87,327.84,332,341.9c3.48,3.56,7.09,7,10.63,10.49l5.34,5.22,5.42,5.13,5.42,5.14c1.81,1.71,3.6,3.44,5.46,5.09l11.08,10-11.24-9.84c-1.89-1.62-3.71-3.32-5.55-5L353,363.1,347.57,358l-5.39-5.18c-3.57-3.47-7.22-6.86-10.74-10.39l-10.6-10.53-10.46-10.67c-3.5-3.55-6.94-7.14-10.38-10.75s-6.91-7.17-10.31-10.82q-20.47-21.77-40.36-44.08l-9.91-11.18-9.85-11.24Q219.78,221.88,210.14,210.46Z" style="fill:#d82930"/><path d="M654,390.5a132.75,132.75,0,0,1-20.38,41.79,113.58,113.58,0,0,1-10,12A102.19,102.19,0,0,1,612,454.68a90.45,90.45,0,0,1-13.09,8.48A92.83,92.83,0,0,1,569.5,473a104.68,104.68,0,0,0,14.95-4.14c2.46-.79,4.81-1.89,7.2-2.87,1.17-.54,2.32-1.13,3.48-1.69l1.74-.86,1.68-1a101.09,101.09,0,0,0,24.35-18.91,127.11,127.11,0,0,0,18.48-24.77,145.87,145.87,0,0,0,7.07-13.8A123.17,123.17,0,0,0,654,390.5Z" style="fill:#d82930"/><path d="M354,406.5c5.39,4.33,10.88,8.53,16.43,12.66s11.11,8.22,16.76,12.21c11.29,8,22.75,15.7,34.59,22.83,5.89,3.61,11.86,7.08,17.95,10.34s12.26,6.36,18.57,9.16A162.37,162.37,0,0,0,477.65,481,76.53,76.53,0,0,0,498,484.5a76.77,76.77,0,0,1-20.49-3,161.78,161.78,0,0,1-19.54-7c-6.38-2.69-12.58-5.81-18.69-9.06s-12.12-6.7-18-10.29-11.73-7.35-17.48-11.2-11.45-7.78-17-11.86-11.14-8.21-16.6-12.45S359.29,411,354,406.5Z" style="fill:#d82930"/><path d="M164.28,255.56c23-23.54,35.94-43.2,36-43.39l-.33-4.5c-.43.74-49.34,77.35-145,117.44-21.71,9.1-39.86,15.89-55,21v4.25c15.45-5.17,34.1-12.14,56.51-21.52A331,331,0,0,0,164.28,255.56Z" style="fill:#180a3a"/><path d="M117.14,291.21c9.14-6.25,18-12.89,26.52-20a230.51,230.51,0,0,0,24-22.9,230.4,230.4,0,0,1-24.31,22.54q-12.83,10.51-26.59,19.8a422.75,422.75,0,0,1-57.68,32.6A439.23,439.23,0,0,1,0,345.85v.72a430.17,430.17,0,0,0,59.51-22.41A423.9,423.9,0,0,0,117.14,291.21Z" style="fill:#d82930"/><path d="M33.34,304.44c7.14-3,14.2-6.24,21.22-9.54s14-6.69,20.8-10.44,13.44-7.79,19.86-12.17A178,178,0,0,0,113.61,258c2.92-2.57,5.71-5.27,8.41-8.06s5.29-5.69,7.71-8.73a98.1,98.1,0,0,0,6.72-9.5,56.47,56.47,0,0,0,5.21-10.38,56.33,56.33,0,0,1-5.41,10.25,97.75,97.75,0,0,1-6.89,9.33,139.14,139.14,0,0,1-16.25,16.53A215.49,215.49,0,0,1,74.89,283.6c-6.79,3.71-13.73,7.15-20.73,10.47s-14,6.53-21.14,9.64-14.22,6.15-21.4,9.07Q5.83,315.17,0,317.48v.25q5.92-2.19,11.81-4.48Q22.63,309,33.34,304.44Z" style="fill:#d82930"/><path d="M798,514.25l13.06-8.45h-.22c-1.87,0-14.53,7.5-14.53,7.5h-4.22c-1.41,0-.47,2.34-1.41,2.81-.47.23-5.8,3.25-11,6.22Z" style="fill:#846640"/><path d="M813.92,505.74l.29.09,2.54-32,5.08-3.62,4.53,2.66c-.32-.37-4.24-4.81-5.44-5s-5.16,4.84-5.16,4.84Z" style="fill:#846640"/><path d="M844,505.33l-11.67-1.17L831.5,493l2.5-.83.67-3.33,18.18-1.05c-7.43,0-18.41.21-19,.21-.94,0-.47,3.28-.47,3.28s-2.34.47-2.81.47,0,13.59,0,13.59l.63-.16Z" style="fill:#846640"/><path d="M852.83,517.33c-.5,0-32.83,2-32.83,2l-10,9.33,11.17-7Z" style="fill:#846640"/><path d="M860.83,491.83l35.67,1.5,1.5-1.67L899,480l2.24-1.87c-.47-.28-4.09-.11-4.67,0s.35,13.24-.12,13.59-36.1.12-36.45-.18l-2,5.77Z" style="fill:#846640"/><polygon points="917.49 502.99 919 505.5 887.5 513.25 917.49 502.99" style="fill:#846640"/><path d="M651.92,521.24s7.79,2,11.54,2a30.34,30.34,0,0,0,8.08-1.44Z" style="fill:#b3b3b3"/><path d="M589.87,523.55c6.64.58,10.68,1.15,11.54,1.15s9.81-1.44,9.81-1.44Z" style="fill:#b3b3b3"/><path d="M706.7,482.75l39-.12s-17.67.66-20.15.66,11.1.7,14.6.45-5.84.94-13.73.74-20.88-1.35-20.88-1.35-6,.08-10.22.08a35.43,35.43,0,0,1-6.42-.45Z" style="fill:#b3b3b3"/><path d="M594.14,515.37s11.56,1.83,16.13,3S638,517.5,638,517.5Z" style="fill:#b3b3b3"/><path d="M630.66,533.32l30.73-.3s-10,2.74-13.08,2.74S630.66,533.32,630.66,533.32Z" style="fill:#b3b3b3"/><path d="M662.71,543.18s46.25-.41,48.38-.41-19.78,2.34-23.12,2.61S662.71,543.18,662.71,543.18Z" style="fill:#b3b3b3"/><path d="M746.24,491.58c2.41,0,38,.2,40.93,0s-33.46,2.17-36.59,2A5.64,5.64,0,0,1,746.24,491.58Z" style="fill:#b3b3b3"/><path d="M678.23,486.84c2.41,0,38,.2,40.93,0s-33.46,2.17-36.59,2A5.64,5.64,0,0,1,678.23,486.84Z" style="fill:#b3b3b3"/><path d="M613,513.84s26.17,1.52,33.47,2.13,18-1.83,18-1.83Z" style="fill:#b3b3b3"/><path d="M640.42,503s12,1.28,15.35,1.79,8.23-1.53,8.23-1.53Z" style="fill:#b3b3b3"/><path d="M468.29,572.3a86.63,86.63,0,0,0,10.6,1.28,39.06,39.06,0,0,0,7.42-.92Z" style="fill:#b3b3b3"/><path d="M663.53,508.91S671.74,511,675.7,511a32,32,0,0,0,8.52-1.52Z" style="fill:#b3b3b3"/><path d="M521.18,532.65a36.8,36.8,0,0,0,8.89,1.21c4.64,0,13.72-.5,13.72-.5s6-.8,4.83-.8Z" style="fill:#b3b3b3"/><path d="M425.58,565.22a38.69,38.69,0,0,0,14,3c7.3,0,21.6-1.25,21.6-1.25s9.43-2,7.61-2S425.58,565.22,425.58,565.22Z" style="fill:#b3b3b3"/><path d="M534,551.46s28.5,0,35.07-.42l6.58-.42S561.41,553,555.5,553,534,551.46,534,551.46Z" style="fill:#b3b3b3"/></svg>