<svg id="Layer_10" data-name="Layer 10" xmlns="http://www.w3.org/2000/svg" viewBox="0 0 1366 768"><title>Layer5</title><path d="M1362.64,461.26c-5.11-1.89-5.28-.87-8.73-4.6s.42-2.57-6.09-4.16-5.12,2.32-5.12,2.32-6.34-2.62-7.82-6-14.1-.73-21.44-1.41-4-.65-8-5-7.9-5.52-11.37-5-31.52,2.21-31.52,2.21-5.36-.35-6.17-3.65a37.87,37.87,0,0,1-.71-8s-3.54-3.22-6.83-3.76a7.87,7.87,0,0,1-4.94-2.92,21.57,21.57,0,0,1-4.2-3.33c-1.73-1.87-2-4-8-5s-9.65,1.05-11.63.73a9.86,9.86,0,0,1-5.11-1.89c-1.81-1.35.25-1.54-.73-3.81s-4.62-.76-9.23-1.51-4.8,4.49-4.8,4.49L1195,409.5l-3-2.08c-3-2.08-2.55-.95-6.51-1.6s-2,3.89-5.05,6-1,1.95-3.23,3.16-3.54-3.22-6.33-6.84-7.66-2.84-15.35,2.76a11.29,11.29,0,0,1-14.19-.22s-4.2-3.33-6.66-4.79-3.62-2.7-9.15-2-7.52,4.57-11.82,6-4.87.78-8-.78-2.71-4.14-9-7.27-9.16,2.19-11.14,1.86-6-.46-8.41-2.43-8.14-8.19-12.84-8.44-10.09,7.84-12.32,9.05,0,0-6.43-2.11-7.34-.68-10.64-1.22-5.28-.87-7.66-2.84-2.29-6.7-5.91-9.41-3.72,2-4.63,3.46-9.59,4.76-9.59,4.76-3.57,5.22-4,7.79-2.23,1.22-10.31.94-10.06-.6-12-1.43-2.62-4.65-5.58-7.25S963,395.69,963,395.69s-2,3.89-6.12,4.27-7.52,4.57-7.52,4.57-3.62-2.7-3.94-4.87-11.3-1.33-14.27.3-2.89,1.11-3.87-1.16-3.61-6.92-7.65-7.06-3.57,5.22-7.45,8.27-5.38,3.87-7.35,3.54-7,1.49-9.33,3.22-5.78,2.22-6.2,4.78-5.71,5.92-7.86,6.62-10.54-5.95-11.94-5.65c0,0-1.71-6.08-5.5-7.76s-6-.46-11.31,2.89-1.67,6.06-5.14,6.54-8.08-.27-11.06,1.35-4.63,3.46-12,2.78-4-4.35-13.92-6-12.48,5.86-12.48,5.86L793,416.32c-5.11-1.89-6.68-.57-8.25.76s-11.39,3.4-18.65,2.21-6.92-3.24-11.37-5-4.38,1.92-8.67,3.32-4.79.27-9.72-2.65-8.1,3.95-14.45,5.54-6.69,3.65-14.78,3.38-5.26-5.08-10-4.81-15.76,1.11-15.76,1.11l-.81-3.3-10.06-.6-.9-2.78c-.9-2.78-5.18-5.6-7.82-6s-6.12,4.27-6.54,6.84-.59,3.6-5.88,6.95-6.1.05-8.74-.38-5.35-4.57-14.66-5.57-1.42,4.51-6.2,4.78-3.94-4.87-5-2.41-7.44,4.05-10.9,4.54-1.47-3.41-3.52-7.43-5.44.16-10.23.43-9,9.6-9.36,11.65-8-.78-9.56-3.68-6.43-2.11-9.64-3.16-11.72,1.24-14.36.81-3.21-1.05-4.28-2.81-4.6-5-10.54-5.95-7.86,6.62-10.9,4.54-4.35-6.52-7.24-5.41-5.64,9.62-6.23,13.22-3.4,4.19-6.69,3.65-5.43-4.06-8.64-5.11-3.62-2.7-3.62-2.7a45,45,0,0,0-5.18-5.6c-1.81-1.35-2.48,2.76-5.29,3.35s-2.47-1.46-2.88-3.11-3.1-10-6.4-10.54-8.46,14.44-8.46,14.44-3.69-6.41-6.33-6.84-3.72,2-5.54,4.89-1.25,3.49-9.42,3.73-44.5,10.08-47.81,13.75c0,0,144,15.21,248.88,19.77,88.22,3.83,575.32,22.39,727.12,26.78V462.74A25.74,25.74,0,0,1,1362.64,461.26Z" style="fill:#532d9b"/><path d="M820.1,417c-2.16-1.42-2.62-3.55-9.53-4.68a13.85,13.85,0,0,0-6,.19l-5.16,6.26,10.5-4.67-18.67,11.5,23.17-8.5Z" style="fill:#ab8750"/><path d="M1016.78,389.74c-.91,1.43-9.59,4.76-9.59,4.76s-3.57,5.22-4,7.79c-.37,2.28-1.85,1.47-7.8,1.07,2.45,2.17,5.29,3.79,6.8,1.52,3-4.5,12.92-8.58,14.79-11.71a11.81,11.81,0,0,0,1.75-6l2.51-1C1017.79,383.73,1017.68,388.33,1016.78,389.74Z" style="fill:#ab8750"/><path d="M956.86,400c-4.13.38-7.52,4.57-7.52,4.57l12.29-2.72L973,394.47l-6.49.08c-2,.55-3.49,1.14-3.49,1.14S961,399.58,956.86,400Z" style="fill:#ab8750"/><path d="M864,404.76c-3.79-1.68-6-.46-11.31,2.89s-1.67,6.06-5.14,6.54-8.08-.27-11.06,1.35c-1.21.66-2.2,1.35-3.44,1.9.71.45,2.67.81,8.11-.3,9-1.83,11.17-4.67,11.5-6.5s10.17-5.83,10.17-5.83l-3,5,3.33-1.83-1,3,3.5-3.5-2.83-.5,3.26-.68A6.73,6.73,0,0,0,864,404.76Z" style="fill:#ab8750"/><path d="M1085.61,403.68c-2-.32-6-.46-8.41-2.43s-8.14-8.19-12.84-8.44-10.09,7.84-12.32,9.05,0,0-6.43-2.11a18.29,18.29,0,0,0-6.74-1.19l13.24,8,8.75-8.25,15.25,14.5,17-9.25h6.56a22,22,0,0,0-2.93-1.74C1090.49,398.67,1087.58,404,1085.61,403.68Z" style="fill:#ab8750"/><path d="M1127.7,403.72c-.64,0-1.36.07-2.17.17a12.51,12.51,0,0,0-5.74,2.27l-7.34,6.47,8.17-4.33,3.5-2.83-2.33,4.17Z" style="fill:#ab8750"/><path d="M784.12,420.8l7.26-5c-3.86-1.07-5.26.1-6.65,1.28-1.57,1.32-11.39,3.4-18.65,2.21s-6.92-3.24-11.37-5-4.38,1.92-8.67,3.32-4.79.27-9.72-2.65-8.1,3.95-14.45,5.54-6.69,3.65-14.78,3.38-5.26-5.08-10-4.81c-2.61.15-7.06.46-10.57.72l5.64,4.79,37.5,4.25,3.25-10.75-7,6.5,7.75-9.75,4,7.5,17.5-2.75-7.25,6Z" style="fill:#ab8750"/><path d="M1026.87,401.18l1.28-4.85c-.28-.19-.55-.4-.84-.64a7.94,7.94,0,0,1-2-3.22l-7.07,7.07,6.25-3.62Z" style="fill:#ab8750"/><path d="M561.43,420c-2.16-.71-6.7.09-10.25.57a19.09,19.09,0,0,0,8.44,3.41,70.65,70.65,0,0,0,11.82-.26,3.75,3.75,0,0,1-.37-.55C569.51,420.26,564.64,421,561.43,420Z" style="fill:#ab8750"/><path d="M479.9,417.28l1.06,2.35,3.6-4.32a9.92,9.92,0,0,0-.8-.69C482.3,413.55,481.57,416,479.9,417.28Z" style="fill:#ab8750"/><path d="M395.66,434.72l7.48.77,39.15-11.19,9.33-6L461,424l8-17.67h2.81a4.52,4.52,0,0,0-2.58-2c-3.3-.54-8.46,14.44-8.46,14.44s-3.69-6.41-6.33-6.84-3.72,2-5.54,4.89-1.25,3.49-9.42,3.73c-6.82.2-33.28,7.09-43.74,11.5Z" style="fill:#ab8750"/><path d="M659.12,418.8l-.78-7.17,8.08.28,1.72-.66a12.85,12.85,0,0,0-6.44-3.81c-2.64-.43-6.12,4.27-6.54,6.84s-.59,3.6-5.88,6.95-6.1.05-8.74-.38c-2.41-.4-4.9-3.88-12.44-5.24l17.53,9Z" style="fill:#ab8750"/><path d="M514.11,411.17c-2.89,1.11-5.64,9.62-6.23,13.22s-3.4,4.19-6.69,3.65a7.85,7.85,0,0,1-3.34-1.58c2.78,2.21,5.49,3.59,7.44,2.84,4.74-1.84,8.64-13,12-17C516.38,411.29,515.4,410.68,514.11,411.17Z" style="fill:#ab8750"/><path d="M524,416.27c.72.39,1.8.48,3.6,0,3.74-.94,9.7-.3,14.19.45a17,17,0,0,0-9.56-4.71C528.17,411.37,526,414.77,524,416.27Z" style="fill:#ab8750"/><path d="M912.15,400c-3.89,3.05-5.38,3.87-7.35,3.54s-7,1.49-9.33,3.22-5.78,2.22-6.2,4.78-5.53,5.8-7.74,6.58c3.58,2.17,7.49,2.7,10.93-1C902,407,908.79,404.8,908.79,404.8s9.33-6.17,9.83-9c.28-1.6,2.54-2.41,4.73-2.53a6.22,6.22,0,0,0-3.74-1.54C915.56,391.6,916,396.95,912.15,400Z" style="fill:#ab8750"/><path d="M938.45,400.8a37.74,37.74,0,0,1,6.6-1.66c-1.57-1.22-8.09-.88-11.89.09C935.07,400.51,937,401.37,938.45,400.8Z" style="fill:#ab8750"/><path d="M584.62,425.3c5.33-5.33,11-9.33,12.33-8.67s4.33,9,4.33,9L616.46,419c-1.22-1.26-1.1-3-1.82-1.33-1.08,2.46-7.44,4.05-10.9,4.54s-1.47-3.41-3.52-7.43-5.44.16-10.23.43-9,9.6-9.36,11.65c-.14.86-1.56.86-3.28.36L577,429S579.29,430.63,584.62,425.3Z" style="fill:#ab8750"/><path d="M904.55,433.8C848.06,436.26,746.26,451.62,712,457l15.68.62c43-6.54,127.49-18.64,177-20.8,48.19-2.1,241.29-1.74,351.62-1.34a25.82,25.82,0,0,1-.43-3C1145.44,432.06,952.74,431.71,904.55,433.8Z" style="fill:#f7931e"/><polygon points="887.49 444.3 991.99 453.3 992.46 450.34 962.54 443.43 1030.77 446.14 1010.18 437.91 1009.06 440.69 1013.47 442.46 946.68 439.8 946.28 442.76 971.07 448.48 887.75 441.31 887.49 444.3" style="fill:#f7931e"/><path d="M962.4,466.58c104.62-6.82,258.42-16.1,368.14-19.49-4.71-.32-12.12.76-17.1.3-5.55-.51-5-.62-6.1-2.53-118.62,4.28-277.1,14.18-374,20.62Z" style="fill:#f7931e"/><polygon points="1021.62 455.63 1034.29 441.63 1114.53 439.28 1038.95 446.3 1021.62 455.63" style="fill:#f7931e"/><polygon points="737.62 446.97 742.29 429.63 909.62 424.3 750.95 436.97 737.62 446.97" style="fill:#f7931e"/></svg>