<svg id="Ñëîé_9" data-name="Ñëîé 9" xmlns="http://www.w3.org/2000/svg" viewBox="0 0 1366 768"><title>Layer1</title><path d="M1366,535.92c-72.19,7.69-267.56,29.57-390.42,53.66C893,619.31,736.84,717.76,659.65,768H1366V535.92" style="fill:#82504d"/><path d="M1028.49,695c-49.47,30-83.39,56.46-102.78,73H992.4c32.39-24.09,64-45.54,94.35-64.61Z" style="fill:#ab8750"/><path d="M1326.62,567.35l15.11,12.2q13.17-4.5,24.27-7.92V556.57Q1345.84,561.79,1326.62,567.35Z" style="fill:#ab8750"/><path d="M1217.63,603.64l34,11.48c27.08-12.05,51.59-21.76,72.94-29.51l-19.94-11.73c-30.88,9.44-59.86,19.44-87,29.75" style="fill:#ab8750"/><path d="M1194.06,612.87c-37.95,15.29-72,31.08-102.12,46.63l49.34,11.35c32.22-18.23,62.61-33.68,90.61-46.75l-37.83-11.24" style="fill:#ab8750"/><path d="M1101.69,598.43l-19.49,1,32.4,12.72,10.73,4.21-62.8-5.62-11.14,1.35,11.93,3.94-1.31,2.24,75,19.24q26.86-12.41,57-24.61l37.83,11.24q-24,11.2-50.23,24.8L1221,659l77-3,68,17.82V604.1l-75.71-5.38q-18.3,7.36-38.68,16.39L1239.42,611,1216,615l-114.31-16.57m137.21-2.68-9.61.22,5.48,1.28,4.14-1.5" style="fill:#412827"/><path d="M1246.11,595.59l-7.21.16-4.14,1.5,35.9,8.41L1239.42,611l12.18,4.12q20.35-9.05,38.68-16.39l-44.17-3.14" style="fill:#564428"/><path d="M1194.06,612.87q-30.15,12.14-57,24.61l44.6,11.43q26.18-13.64,50.23-24.8l-37.83-11.24" style="fill:#564428"/><path d="M1091.45,390.94a9.65,9.65,0,0,0-.35-4.39,4.39,4.39,0,0,0-3-2c-2.88-.41-5.69,2.55-6.28,6.63a9.64,9.64,0,0,0,.35,4.39,4.39,4.39,0,0,0,3,2C1088.05,398,1090.86,395,1091.45,390.94Z" style="fill:#37262f"/><polygon points="1238.64 404.75 1234.47 385.13 1183.56 369.57 1168.31 406.56 1238.64 404.75" style="fill:#573c3b"/><path d="M1152.08,415.57c-.91-1.5-.42-26.46-.42-26.46l32.26-20-14.71,38.31-9,.9Z" style="fill:#312222"/><path d="M1125,430.9s-10.44,6.14-14.42,5.68-3.94-19.38-3.94-19.38l19.57-1.59,4.8-18.51,20.71-2.49.34,18.26Z" style="fill:#573c3b"/><path d="M1226.54,374.44l-3,7.64-39.66-12.92-32.26,20,.25,6-17.58,1.55S1113,375,1114.21,371.39c2.71-8.12,34.84-14.37,35.69-13.65s25.43,2.66,36.58,4.11S1226.54,374.44,1226.54,374.44Z" style="fill:#1b131e"/><path d="M1274.71,405.65s-1.21-20.16-8-25.91-16-12.88-19.09-11.84-12.53,1-17.16,2.18-6.94,11.6-6.94,11.6l11.26,4.3,2,18.77Z" style="fill:#1e1917"/><path d="M1115.89,435.4c6.69-5.79,22.63-19.49,26.6-22,5.05-3.22,7.35-17.46,7.35-17.46l1.91-.52.32,17.46-27.05,18A74.29,74.29,0,0,1,1115.89,435.4Z" style="fill:#452b2a"/><path d="M1230.48,370.09c4.63-1.17,14.09-1.15,17.16-2.18s12.32,6.09,19.09,11.84a10,10,0,0,1,1.36,1.45l-9.32,1.86-9.65-11-19.36-1.66A3.84,3.84,0,0,1,1230.48,370.09Z" style="fill:#362e29"/><path d="M1268.09,381.19c5.57,7.09,6.62,24.46,6.62,24.46l-13.68-.33,1.87-7.11-4.14-15.17Z" style="fill:#2a2420"/><polygon points="1231.19 390.64 1187.49 370.78 1234.47 385.13 1238.64 404.75 1232.55 404.91 1231.19 390.64" style="fill:#694b4a"/><path d="M1152.08,412.87l-.39-.57c-.35-7.13,0-23.19,0-23.19l32.26-20-29.48,21.72Z" style="fill:#301c1c"/><path d="M1149.89,357.74c.85.72,25.43,2.66,36.58,4.11,9.88,1.29,34.32,10.49,39.64,12.5l-1,2.5s-27.66-9.65-38.69-11-26.89-4.83-40.67-2.76-31.5,8.32-31.5,8.32C1116.91,363.27,1149,357,1149.89,357.74Z" style="fill:#4b3157"/><polygon points="1106.67 417.2 1119.51 419.82 1126.24 415.61 1106.67 417.2" style="fill:#452b2a"/><polygon points="1266.72 405.38 1262.45 381.96 1245.03 368.98 1245.63 368.18 1263.36 381.39 1267.71 405.2 1266.72 405.38" style="fill:#201a12"/><path d="M1288.89,407.57c8.32,5.72,28.22,89.45,35.07,113.73S1334.23,574,1334.23,574s-68,11.75-118.07,9.7-98.11-5.19-98.11-5.19,33.77-165.3,41.74-171.67c3.67-2.93,121.28-4.69,129.1.68" style="fill:#5d3a45"/><path d="M1159.79,406.88s-42,26.78-46,30-16.85,54.21-16.85,54.21S1068,527,1067,528.56s.15,38.77,1.71,39.74,7.77,3.85,7.77,3.85-1.47-31.59,1.67-29.13,8.59,30.86,8.59,30.86l12.82,2.16s.22-43.37,3.38-39.9,9.44,42.06,9.44,42.06l5.62.34s36.2-169.46,41.74-171.67" style="fill:#ab7a69"/><path d="M1286.5,412.74s22,69.23,20,71.84-157.83,10.9-159.57,3.81,14.57-74.93,19.13-76.09,117.21-4.57,120.42.44" style="fill:#4b2e3c"/><path d="M1282.63,420s-35.73,16.39-38.76,17.5-6.94,40.51-6.94,40.51l60.26,1.75s-12-58.31-14.56-59.76" style="fill:#765261"/><path d="M1238.32,439.2s-7.22,31.34-8.13,34.94l-.91,3.6-82.54,3.52s7-39.5,9.49-40.59,77.46-2.85,82.1-1.46" style="fill:#765261"/><path d="M1307.17,480.48c-7.18-1.31-73.8-2.61-82-2.37s-77,2.84-78.47,3.14-1.51,9-1.51,9,33.83,5.1,80.17,2.42c10.21-.59,83.52-4.82,83.25-5.58s.19-6.28-1.47-6.59" style="fill:#1d1724"/><path d="M1270,449.72c-4.55-.77-21.16.39-22.4,1.44s-7.72,23.19-8.16,25.25.32,2.29.32,2.29l43.47.79s-8.1-28.9-13.23-29.77" style="fill:#1b131e"/><path d="M1200.45,452.33c2.62,2.22,5.58,26.72,5.58,26.72L1157.2,481s7.33-27.28,10.36-28.13,29.85-3.06,32.89-.49" style="fill:#1b131e"/><path d="M1265.33,522.56s1.06,18.33-5,19.79-49.45,1.24-51,.27-2.09-18.56-2.09-18.56Z" style="fill:#ab7a69"/><path d="M1260.14,542.39c-6.13,1.31-43.11,1.22-49.81.44-.81-4.67-1.1-14.46-1.1-14.46L1262,527S1262.6,537.37,1260.14,542.39Z" style="fill:#8f615c"/><path d="M1128.11,561.28s32.15.18,66.28,2.59c30,2.12,116.74-5.16,137.3-7,1.69,10.08,2.54,17.14,2.54,17.14s-68,11.75-118.07,9.7c-35.67-1.47-70.3-3.48-87.27-4.52Z" style="fill:#bb718c"/><path d="M1228.42,584.23c-4.18,0-8.28-.08-12.26-.24-35.52-1.46-69.93-3.46-87.28-4.52h-.22l-.8-18.43h.26c.32,0,32.55.2,66.29,2.59,30.25,2.13,119.65-5.42,137.26-7l.23,0,0,.23c1.68,10,2.54,17.08,2.54,17.15l0,.24-.23,0C1333.65,574.4,1276.16,584.23,1228.42,584.23ZM1129.13,579c17.42,1.06,51.68,3,87,4.5,48,2,113.33-8.9,117.78-9.65-.16-1.3-1-7.84-2.47-16.66-18.15,1.58-107,9.07-137.11,6.94-32.11-2.27-62.85-2.56-66-2.58Z"/><path d="M1216.16,583.74c-50.06-2.06-98.11-5.19-98.11-5.19s10-46.31,20.07-90.87c7.87,16.44,27.47,60.23,27.47,60.23l117.69,7.15,33.35-61.47c3,11.57,5.6,21.56,7.34,27.72,6.86,24.28,10.27,52.75,10.27,52.75S1266.22,585.8,1216.16,583.74Z" style="fill:#724a4e"/><path d="M1313.78,520.44s9.43,15,9.78,18.39-4.33,17.36-9.44,16.78-11.4-15.91-11.4-15.91S1309.83,518.13,1313.78,520.44Z" style="fill:#5c3a45"/><path d="M1313.29,522.77s7.44,11.83,7.71,14.5-3.41,13.69-7.44,13.23-9-12.55-9-12.55S1310.18,520.95,1313.29,522.77Z" style="fill:#732134"/><path d="M1311.39,548.46a2,2,0,0,1-.64.2,37,37,0,0,1-5.16-8.42l13.54-1.39S1315,546.63,1311.39,548.46Z" style="fill:#9a3f56"/><path d="M1141.95,524.35s-9.06,16.56-9.21,20.18,5.72,18.18,11.12,17.24,11.1-17.65,11.1-17.65S1146,521.64,1141.95,524.35Z" style="fill:#5c3a45"/><path d="M1141.14,528s-6.71,12.26-6.82,14.94,4.23,13.46,8.23,12.76,8.21-13.07,8.21-13.07S1144.14,526,1141.14,528Z" style="fill:#732134"/><path d="M1144.59,553.51a2,2,0,0,0,.65.16,36.93,36.93,0,0,0,4.64-8.71l-13.6-.57S1140.91,551.9,1144.59,553.51Z" style="fill:#9a3f56"/><path d="M1342.48,560s-1.53,16.88-5,20-89.8,16.49-142,12-66.06-8.21-66.06-8.21l-1.13-20.37s88.41,5,109.85,5.35S1342.48,560,1342.48,560Z" style="fill:#19192d"/><path d="M1246.11,595.59a46.39,46.39,0,0,1-16.83.38c-.91-.15-1-3.54-1-3.54l18.35-.43S1247,595.38,1246.11,595.59Z" style="fill:#070b1e"/><path d="M1328.87,582.37s-.77,25-3.29,26.12-33.58,3.06-36.16,2.11-5.24-21.27-5.24-21.27Z" style="fill:#060a19"/><path d="M1328.52,590c-.44,7.46-1.34,17.8-2.93,18.5-2.52,1.1-33.58,3.06-36.16,2.11-1-.38-2.07-3.85-3-7.88-.56-3.41-.9-6-.9-6Z" style="fill:#070b1e"/><path d="M1103,536.15s2.53,66.76,5.76,72.27,37,3.35,38.38-.27,2.29-21.37,2.29-21.37l-20-3-.54-4.59-16.46-1S1105.42,536.2,1103,536.15Z" style="fill:#070b1e"/><path d="M1078.63,544.41c-1.67-1.57.51,54.7,3.58,55s18.82,2.41,19.49-1c1-5.33-1-44.74-1-44.74L1099.61,576l-12.82-2.16S1080.2,545.89,1078.63,544.41Z" style="fill:#070b1e"/><path d="M1145.29,420.71s-10.28,65-11.37,66.92-29.58,8.93-33.5,5.61,12.51-54.33,16.28-56.36,28.56-17.32,28.59-16.17" style="fill:#9d7467"/><path d="M1068,565c-1.13-9.33-1.77-35.13-1-36.42,1-1.56,29.86-37.51,29.86-37.51s11.31-44.83,16-53.07L1100,491.72s-21.69,29.35-28,37.2C1067.38,534.74,1067.59,554.94,1068,565Z" style="fill:#b5927c"/><path d="M1138.65,458.28s-10.2.05-12.2,1.64-9.72,32.69-9.72,32.69,15.24-2.25,17.2-5,4.72-29.35,4.72-29.35" style="fill:#332434"/><path d="M1231.66,468c-.71,3-1.26,5.34-1.47,6.17l-.91,3.6-23.29,1v.08c9.42-.35,16.85-.62,19.21-.69.68,0,1.76,0,3.17,0,2.64,0,6.46,0,11,.1l0-.1-2.42-.07s.22-2.26.61-5.7l-5.89-4.35m-58.6-40.26-6.78,12.2c6.58-.3,15.68-.58,25.21-.8-9-6.22-15.94-10.61-18.43-11.4" style="fill:#5d414e"/><path d="M1237.55,472.31c-.38,3.45-.61,5.7-.61,5.7l2.42.07a3.89,3.89,0,0,1,.08-1.68c.07-.32.28-1.12.6-2.25l-2.5-1.85" style="fill:#84626f"/><path d="M1191.49,439.11c-9.53.22-18.64.51-25.21.8l-8.22,14.78,6.21,3.84c1.26-3.18,2.44-5.48,3.29-5.72,2-.56,14.13-1.7,23.15-1.7,4.78,0,8.69.32,9.74,1.21,2.44,2.07,5.18,23.49,5.54,26.4l23.29-1,.91-3.6c.21-.83.75-3.13,1.47-6.17-13.73-10.11-28.68-21-40.17-28.86" style="fill:#84626f"/><path d="M1228.39,478.08c-1.42,0-2.5,0-3.17,0-2.36.07-9.8.34-19.21.69l0,.25-7.7.3c9.31,5.61,17.53,10.45,21.05,12.26l.18.09c14.18-.5,28.59-1.18,41.44-1.9-3.92-2.95-9-6.74-14.7-11l-6.54-.12s-.25-.07-.38-.51c-4.54-.06-8.36-.1-11-.1" style="fill:#342c38"/><path d="M1240,474.16c-.32,1.13-.53,1.93-.6,2.25a3.89,3.89,0,0,0-.08,1.68l0,.1c.13.44.38.51.38.51l6.54.12-6.26-4.65" style="fill:#322832"/><path d="M1190.71,451.12c-9,0-21.17,1.14-23.15,1.7-.85.24-2,2.53-3.29,5.72,7.88,4.86,21.9,13.49,34.06,20.82l7.7-.3,0-.25v-.08c-.36-2.91-3.1-24.33-5.54-26.4-1.05-.89-5-1.21-9.74-1.21" style="fill:#322832"/><path d="M1214.06,413.91c-8.44,0-18.55.17-18.55.17s13.3,11.17,29.19,24.61c7.3,0,12.51.17,13.63.51l-2.13,9.23,4,3.4c1.17-7.55,2.5-13.9,3.69-14.33.56-.2,2.22-.93,4.56-2-10.4-11.31-19.75-20.51-23.34-21.33a109,109,0,0,0-11-.29" style="fill:#5d414e"/><path d="M1248.44,435.53c-2.34,1-4,1.76-4.56,2-1.19.44-2.52,6.79-3.69,14.33l5.31,4.52c1-2.82,1.75-4.88,2.11-5.19.77-.65,7.37-1.34,13.38-1.59-4.15-4.75-8.43-9.56-12.55-14" style="fill:#84626f"/><path d="M1224.69,438.69l11.5,9.74,2.13-9.23c-1.12-.34-6.33-.49-13.62-.51" style="fill:#84626f"/><path d="M1281.48,473.62c.86,2.73,1.46,4.81,1.68,5.56l3,.1c-1-1.22-2.62-3.17-4.69-5.66" style="fill:#84626f"/><path d="M1283.16,479.18l.09.3-11.19-.2c2.19,1.95,3.79,3.42,4.64,4.27,1.5,1.51,2.69,2.78,3.74,3.95.64-.05,6.89-6.82,6.89-6.82l-1.15-1.4-3-.1" style="fill:#342c38"/><path d="M1261,449.57c-6,.25-12.62.94-13.38,1.59-.36.31-1.15,2.36-2.11,5.19,10.81,9.22,20.74,17.76,26.55,22.93l11.19.2-.09-.3c-.21-.75-.82-2.83-1.68-5.56-4.94-5.93-12.47-14.88-20.49-24.05" style="fill:#322832"/><path d="M1119.05,483.48s-14.94,1.84-16.09,1.84-3,6.69-2.81,7.54,6.35,1.54,11.43.85,5.14-1.09,5.14-1.09l2.33-9.14" style="fill:#1d1724"/><path d="M1145.29,420.71l-3,18.64-29.41,4.6s2.27-6.09,3.85-7.07c2.68-1.66,28.59-16.17,28.59-16.17" style="fill:#4b2e3c"/><path d="M1108.32,467.62c-1.66,4.73-5.84,17.88-8.17,25.23-2.78-5.67,12.88-54,16.55-56a10.42,10.42,0,0,0,1.67-.86c-4.6,11.84-8,25.78-10,31.6" style="fill:#b5a392"/><path d="M1079.93,486.21a31,31,0,0,0-1.24,9.6c.16,5.35,7.5,7.43,10.16,7s5.65-2.85,5.65-2.85l3.85.65.27-3.83Z" style="fill:#714e44"/><path d="M1098.61,496.74l-.06.88-3.71-.62s-3,2.39-5.65,2.85-10-1.61-10.16-7a29.7,29.7,0,0,1,.07-3,26.63,26.63,0,0,1,.83-3.63Z" style="fill:#a57667"/><polygon points="1071.65 554.19 1071.29 567.59 1065.96 568.52 1066.37 556.64 1071.65 554.19" style="fill:#17182d"/><path d="M1106.45,494l0,.07.76-.06h-.73m11-1.47-.69.11h0s0,0-.16.11l.85-.22m23.14-52.89-5.77.9-23.25,43.86,7.52-.91h0l-.82,3.22c2.35-9.11,6.78-25.62,8.22-26.77,1-.78,3.91-1.19,6.65-1.4,2.88-7.22,5.58-14.11,7.46-18.9" style="fill:#a78175"/><path d="M1133.1,458.52c-2.75.22-5.68.63-6.65,1.4-1.44,1.15-5.86,17.66-8.22,26.77l-1.51,5.92h0l.69-.11a4.41,4.41,0,0,0,1.29-.53c1.21-.89,8.2-17.92,14.4-33.46" style="fill:#483846"/><path d="M1119.05,483.48l-7.52.91-5.09,9.59h.73a84.52,84.52,0,0,0,9.39-1.26c.15-.07.16-.11.16-.11h0l1.51-5.92.82-3.22" style="fill:#342c38"/><path d="M1145.29,420.71l-10.5,19.81,5.77-.9c1.58-4,2.56-6.59,2.56-6.59l2.17-12.32" style="fill:#5d414e"/><polyline points="1133.14 440.78 1123.06 442.36 1109.17 465.44 1103.83 481.55 1133.14 440.78" style="fill:#a78175"/><polyline points="1145.29 420.71 1131.23 428.79 1123.06 442.36 1133.14 440.78 1136.23 436.48 1145.29 420.71" style="fill:#5d414e"/><path d="M1128.43,563.45c3.43.19,88.73,5,109.73,5.34,21.44.37,104.32-8.77,104.32-8.77s0,.42-.12,1.14a27.33,27.33,0,0,1-11.9,4.82c-8.27.92-79.05,6.43-102.49,6.89s-97.9-7.35-97.9-7.35Z" style="fill:#1c1e2f"/><path d="M1195.5,592c-52.18-4.54-66.06-8.21-66.06-8.21l-1.13-20.37,2.44.14c.83,7.28,2.45,17.88,4.85,18.49,3.68.92,76.75,7.35,90.08,7.35s100.19-9.65,105.25-11c3.56-1,8.49-11.52,11.09-18.31l.46-.05s-1.53,16.88-5,20S1247.67,596.56,1195.5,592Z" style="fill:#15122a"/><path d="M1157.2,412.58s-15.17,45.16-18.84,65.15c-1.31,7.15-12.06,57.68-14.36,67.33s-5.86,33.32-5.86,33.32Z" style="fill:#b5a392"/><path d="M1078.69,495.81a31,31,0,0,1,1.24-9.6l16.37,9.23c-5-2.48-13.82-6.75-15-6.38-1.72.52-1.55,7.07.34,9.31s9.65,3.27,10.34,2.93,3.1-1.72,3.1-1.72l1,.63-1.59-.27s-3,2.39-5.65,2.85S1078.85,501.16,1078.69,495.81Z" style="fill:#b5a392"/><path d="M1123.65,517.14c-3.85,1.55-7.75,2.9-11.67,4.19s-7.87,2.49-11.83,3.66-7.94,2.24-12,3.24-8,1.95-12.11,2.7c3.85-1.55,7.75-2.91,11.67-4.2s7.87-2.49,11.83-3.66,7.95-2.24,12-3.23S1119.57,517.89,1123.65,517.14Z" style="fill:#b5a392"/><path d="M1112,610.39a5.68,5.68,0,0,1-3.29-2c-3.23-5.51-5.76-72.27-5.76-72.27s2.94,9.75,5.56,20.69c2.09,10.63,3.88,21.37,3.88,21.37C1113.28,589.28,1113.75,602.68,1112,610.39Z" style="fill:#19192d"/><path d="M1084,599.53c-2.76-.23-.82,0-1.8-.13-3.07-.29-5.25-56.56-3.58-55l.09.13c.66,1.95,1.87,5.59,3.17,9.82,2.32,8.57,4.89,19.52,4.89,19.52C1087.93,582,1085.79,593.07,1084,599.53Z" style="fill:#19192d"/><path d="M1106.76,565.4a86.51,86.51,0,0,1,1.36,9.78,85.41,85.41,0,0,1,.36,9.87,85.14,85.14,0,0,1-1.36-9.78A86.28,86.28,0,0,1,1106.76,565.4Z" style="fill:#b5a392"/><path d="M1080.22,563.68a25.67,25.67,0,0,1,.67,5.33,25.32,25.32,0,0,1-.33,5.36,25.32,25.32,0,0,1-.67-5.33A25.6,25.6,0,0,1,1080.22,563.68Z" style="fill:#b5a392"/><rect x="1088.61" y="397.98" width="80.59" height="1" transform="translate(407.38 1353.79) rotate(-72.38)" style="fill:#201a12"/><rect x="1165.2" y="354.28" width="1" height="24.45" transform="translate(130.76 1016.18) rotate(-49.57)" style="fill:#201a12"/><rect x="1191.58" y="368.25" width="11.66" height="1" transform="translate(-0.69 735.24) rotate(-34.12)" style="fill:#201a12"/><rect x="1210.18" y="374.25" width="1" height="31.05" transform="translate(-56.32 501.04) rotate(-22.86)" style="fill:#201a12"/><path d="M1119.81,443.94l-1,6.23.93.27s.56-2.19.76-2.72a13.53,13.53,0,0,1,.7-1.39l-.93,4.9a6.85,6.85,0,0,0,1.06.33c.2,0,2.45-.73,2.45-.73l3.64-12-3.51-1.72Z" style="fill:#37262f"/><path d="M1118.82,450.17l.18.05.79-3.86a3.4,3.4,0,0,0,1.24-1.43c.09-.22.46-.11.93-.79,1.26-1.81-.44-2.21-.44-2.21l-.81.53-.89,1.48Z" style="fill:#e0b997"/><path d="M1124.65,437.05l-4.77,4a6.93,6.93,0,0,1-1.39,4.37,9.3,9.3,0,0,1-1.72,1.79,1.73,1.73,0,0,0,1.66.17c.79-.4,2.09-2.65,2.09-2.65.86,0,2.62-1.76,2.68-3.08s2.32-4,2.32-4Z" style="fill:#37262f"/><path d="M1123.63,437.91l-3.75,3.12a6.93,6.93,0,0,1-1.39,4.37,9.29,9.29,0,0,1-1.72,1.79,1.73,1.73,0,0,0,1.66.17,1.55,1.55,0,0,0,.28-.2,3.26,3.26,0,0,1-1.37.05c.76-.84,2.57-3,2.78-4.3a9,9,0,0,0,.17-1.81l3.21-2.53Z" style="fill:#e0b997"/><path d="M1121.54,451.52l.32-.09.67-3.1.65-1.55-.82,1.57Z" style="fill:#e0b997"/><path d="M1121.2,446.33l-.93,4.9.21.08.56-3.52.93-2.53Z" style="fill:#e0b997"/><polygon points="1123.79 437.08 1124.72 440.12 1123.19 441.62 1122.82 444.21 1124.38 446.36 1123.07 450.87 1123.79 450.83 1127.43 438.84 1123.79 437.08" style="fill:#2e1f29"/><polygon points="1144.3 421.19 1130.58 443.69 1123.38 437.17 1127.66 419.17 1144.3 421.19" style="fill:#362338"/><path d="M1062.5,405.42s-3.34-11.69-3.34-13.43,2.88-3.73,3.1-5.48a6.3,6.3,0,0,0-1.14-3.67s2.48-6,2.92-6.61-4.92-2.25-3-3.56,11.16-3.12,15.29-.94,9.9,3.53,12,8.93c3.17,8.22-7,25.92-7,25.92Z" style="fill:#37262f"/><path d="M1087.56,384.7s-2.53-7.76-7.09-6.24-9.11-4.39-15,14c0,0,2.53,9.62,7.59,8.44,3.1-.72,3.67-1.44,3.64-1.9l4.32,7.56.36,0s1.07-1.88,2.41-4.69l1.39-4.32s.3-.19.73-.53a44.61,44.61,0,0,0,2.84-9.87A13.52,13.52,0,0,0,1087.56,384.7Z" style="fill:#2e1f29"/><path d="M1075.94,368.27a9,9,0,0,1,9.9,3.28c1.52,2.11,2.77,9.75,2.77,9.75s-1.25-3.23-3-4.55a35.49,35.49,0,0,0-3.16-2.11s.16-6-3.23-4.22c-2.07,1.07-5.14,10.21-5.14,10.21l-6,.18S1071.2,369.66,1075.94,368.27Z" style="fill:#bf6c4e"/><path d="M1070.29,377.1l-6.27-.87c-.44.65-2.92,6.61-2.92,6.61a7.92,7.92,0,0,1,.62,1.12l-.1-1.45,4-5.29Z" style="fill:#e0b997"/><path d="M1061.79,402.91c-.33-3.35-1-10.14-1.17-11.07-.23-1.24,1.35-4.27,1.35-4.27v-.22c-.77,1.52-2.81,3.17-2.81,4.64C1059.15,393.21,1060.81,399.38,1061.79,402.91Z" style="fill:#e0b997"/><path d="M1085.84,371.55a8.94,8.94,0,0,0-2.47-2.28c-1.64-.63-4.52-1.47-6.75-.82-4,1.15-7.07,9.51-7.91,12.12l5.34.07s3.07-9.15,5.14-10.21a1.66,1.66,0,0,1,2.47.51c2.47-.33,2.34,4.5,2.34,4.5a35.71,35.71,0,0,1,3.16,2.11,5.61,5.61,0,0,1,.9.88C1087.55,376,1086.74,372.81,1085.84,371.55Z" style="fill:#592f2f"/><ellipse cx="1070.58" cy="387.88" rx="8.34" ry="6.05" transform="translate(534.24 1392.33) rotate(-81.81)" style="fill:#bf6c4e"/><path d="M1077.23,388.7a11.35,11.35,0,0,0-.48-5.37,5.74,5.74,0,0,0-3.83-2.5c-3.7-.53-7.27,3.08-8,8.06a11.35,11.35,0,0,0,.48,5.38,5.74,5.74,0,0,0,3.83,2.5C1072.93,397.3,1076.51,393.69,1077.23,388.7Z" style="fill:#592f2f"/><path d="M1085.81,371.84c-.46-.74-3.39-3.73-5.78-2.29a2.86,2.86,0,0,0-1.22,1.34,1.56,1.56,0,0,1,.36-.31c3.35-1.7,3.22,4.72,3.22,4.72a35.33,35.33,0,0,1,3.15,2.36c1.77,1.48,3,5.09,3,5.09S1087.69,374.86,1085.81,371.84Z" style="fill:#37262f"/><path d="M1102.13,438l42.17-16.82-1.58-8-7.42-3-40.87,7.64-.53-.35,1-4.28s2.38-1.9.71-3.33-15.82-5.23-15.82-5.23l.13-.32H1062.5l.24.44L1052,412.23l2.38,6.18a62.3,62.3,0,0,1-9,4.76c-3.81,1.43-5.71,12.85-5.71,12.85l3.33,3.81s-2.38,12.37-4.76,15.23-4.76,16.65-4.76,16.65l10.47,22.36-3.81,4.76s5.23,5.23,5.23,9,6.19,20,6.19,20l1,20.89s3.18,16.08,2.7,22.27,5.38,28.68,6.33,31.53-2.38,15.7.48,15.7,10.94-.48,10.94-.48l-2.86-14.27-.47-26.64s-1.43-10,1-12.85c1.62-1.94,3.68-14.68,4.83-22.62a13.22,13.22,0,0,1-.36-1.52c-1.15-7.25,2.83-14.27,6-20.51,4.29-8.4,8.9-16.66,13.09-25.1l0-.06,1.58-35S1099.73,447.52,1102.13,438Z" style="fill:#362338"/><path d="M1057.7,542.78l-4,64.33.45.45s-3.6.45-2.7,4.5h11.7l7.65-61.64Z" style="fill:#362338"/><path d="M1098.86,435.48s-17.55,16.2-22.94,23.62-12.15,23.28-12.15,23.28l3.71,4.72S1084.69,443.58,1098.86,435.48Z" style="fill:#26162a"/><path d="M1101.56,433.45l-8.77,16.2-31.72,42.51s4,16.53,11.47,15.52,21.59-13.5,21.59-13.5l1.58-35s4-11.69,6.42-21.19l35.26-14.07,5.33-2.64Z" style="fill:#26162a"/><path d="M1066.47,573.26l-5.17-1.35,6.75,4.27L1067.6,606l-5.29,3.15.22,1.58,6.64-2-5.4.51,6.9-3-.56-2.8-.47-26.64s-1.41-9.85.91-12.78l-.37-49.63,9.79-8.1-11.7,6.41Z" style="fill:#26162a"/><path d="M1082.67,427.72l-17.55,41.5s15.52-31,20.92-31.72C1082.33,436.15,1082.67,427.72,1082.67,427.72Z" style="fill:#26162a"/><path d="M1085.37,420s5.74,5.4,54.32-.67c-29.36,5.06-49.26,8.77-55.67,4.39s4.39-6.75,4.39-6.75Z" style="fill:#26162a"/><polygon points="1068.72 413.32 1094.81 411.75 1075.24 415.35 1068.72 413.32" style="fill:#26162a"/><polygon points="1075.24 418.94 1094.37 414.67 1086.72 418.27 1075.24 418.94" style="fill:#26162a"/><path d="M1068.78,371.51s-5.51.34-5.51,1.46v1.13l5.51,1.57s-8.21-.22-8.21-2.47S1068.78,371.51,1068.78,371.51Z" style="fill:#e0b997"/><path d="M1071.28,373.14s-6-2.47-4-3,5.74,1.69,5.74,1.69-2.81-1-3.37-.79S1071.28,373.14,1071.28,373.14Z" style="fill:#e0b997"/><path d="M1049.26,487.1l4-6.75-3-13.5,2.36-28.68-6.07,30.71,2.7,13.5-5.95,10.34.63,1.35-3.81,4.76a30,30,0,0,1,2.5,2.94l8-5.55-4.39-3.37,10.46,4Z" style="fill:#26162a"/><polygon points="1052.03 412.23 1054.41 418.41 1055.13 412.2 1062.74 404.74 1052.03 412.23" style="fill:#e19c86"/><polygon points="1056.32 418.93 1075.3 422.09 1092.69 418.14 1078.46 424.86 1056.32 418.93" style="fill:#2d1a31"/><path d="M1079.87,404.3h-1.63l-1,.4-6.19.13,12.12,2.11,12.37,2.92c-1.67-1.43-15.82-5.23-15.82-5.23Z" style="fill:#301d29"/><path d="M1094.85,413.18s-5.33-.71-7.17-.71-4.48,2.37-6.33,1.32a17.57,17.57,0,0,0-4.22-1.58s4.48,2.77,5.47,3,3.56-1.78,4.94-1.78S1094.85,413.18,1094.85,413.18Z" style="fill:#2d1a31"/><path d="M1043,439.82s-2.38,12.37-4.76,15.23c-1.85,2.22-3.71,11.08-4.43,14.89,1.21-4.52,5.42-14.39,5.42-14.39s4.22-7.25,4.72-11.39S1043,439.82,1043,439.82Z" style="fill:#e19c86"/><path d="M1039.66,436l2.29-.2v-8.08A45.27,45.27,0,0,0,1039.66,436Z" style="fill:#e19c86"/><path d="M1045.37,423.17a3.53,3.53,0,0,0-1.25.88l2.71-1.49C1046.34,422.79,1045.84,423,1045.37,423.17Z" style="fill:#e19c86"/><path d="M1046,511.26c1.56,6.07,5.58,16.58,5.58,16.58l1.42-9Z" style="fill:#e19c86"/><path d="M1062.31,609.14l1.69-.79-6.3-36.22s-2.36-17.21-3.37-25.64a61.94,61.94,0,0,0-2.41-10.94l.61,13.19s3.18,16.08,2.7,22.27,5.38,28.68,6.33,31.53a12.51,12.51,0,0,1,0,4.07Z" style="fill:#e19c86"/><polygon points="1061.86 405.78 1077.83 405 1062.5 404.3 1061.86 405.78" style="fill:#e19c86"/><path d="M1366,768V693c-157.53-21.72-487.17-65.47-576-64-19.55.33-582.1,50.46-790,69v70Z" style="fill:#603a3a"/><path d="M1227.33,672.33c-33.7-3.55-91.81-2.39-163.7,1.8l36.18,16.28c88.92-7.77,159.9-11.24,196.19-7.42Z" style="fill:#7c5c32"/><path d="M662.19,710c-223.19,24.08-427.41,50.59-444.26,53l.71,4.94h244c71.8-10.08,154.12-21.34,238.75-32.32Z" style="fill:#7c5c32"/><path d="M797.86,723.44c69-8.55,137.46-16.55,201-23.23l-51.31-17.78c-57.24,4.69-118.52,10.42-180.35,16.65Z" style="fill:#7c5c32"/></svg>