<?xml version="1.0" encoding="UTF-8" standalone="no"?>
<svg
   id="Layer_9"
   data-name="Layer 9"
   viewBox="0 0 1366 768"
   version="1.1"
   sodipodi:docname="Layer2.svg"
   inkscape:version="1.4.2 (ebf0e940, 2025-05-08)"
   xmlns:inkscape="http://www.inkscape.org/namespaces/inkscape"
   xmlns:sodipodi="http://sodipodi.sourceforge.net/DTD/sodipodi-0.dtd"
   xmlns="http://www.w3.org/2000/svg"
   xmlns:svg="http://www.w3.org/2000/svg"
   xmlns:rdf="http://www.w3.org/1999/02/22-rdf-syntax-ns#"
   xmlns:cc="http://creativecommons.org/ns#"
   xmlns:dc="http://purl.org/dc/elements/1.1/">
  <sodipodi:namedview
     id="namedview30"
     pagecolor="#ffffff"
     bordercolor="#999999"
     borderopacity="1"
     inkscape:showpageshadow="2"
     inkscape:pageopacity="0"
     inkscape:pagecheckerboard="0"
     inkscape:deskcolor="#d1d1d1"
     inkscape:zoom="0.7710065"
     inkscape:cx="610.24129"
     inkscape:cy="346.94909"
     inkscape:window-width="1712"
     inkscape:window-height="954"
     inkscape:window-x="0"
     inkscape:window-y="34"
     inkscape:window-maximized="0"
     inkscape:current-layer="Layer_9" />
  <defs
     id="defs2">
    <linearGradient
       id="id11"
       gradientUnits="userSpaceOnUse"
       x1="13084.17"
       y1="8001.83"
       x2="12210.26"
       y2="5748.94">
      <stop
         offset="0"
         style="stop-opacity:1; stop-color:#6A7838"
         id="stop1" />
      <stop
         offset="1"
         style="stop-opacity:1; stop-color:#FFD726"
         id="stop2" />
    </linearGradient>
  </defs>
  <title
     id="title2">Layer2</title>
  <path
     d="m 1366,534.18 c -90.81,-0.42 -376.93,-0.22 -474,18.19 0,0 -248.4,78.86 -437.9,217 H 1366 Z"
     style="display:inline;fill:#471c66"
     id="path6"
     sodipodi:insensitive="true" />
  <g
     id="Layer4_content"
     transform="matrix(0.074409,0,0,0.074497,0,2)"
     fill-rule="evenodd"
     style="display:inline">
    <path
       style="display:inline;fill:#30145a;fill-opacity:1"
       d="m 17804.3,7150.81 c 0,0 32.83,-463.96 32.83,-774.83 0,-310.86 -16.42,-684.68 -16.42,-684.68 l -405.75,-720.52 c 0,0 -296.1,-306.97 -434.32,-600.38 -138.22,-293.41 -334.71,-651.32 -334.71,-651.32 l -535.09,-1503.43 63.06,-144.83 c 0,0 581.59,1585.82 726.1,1895.87 144.51,310.04 404.14,636.75 508.99,787.31 104.85,150.55 324.25,544.46 324.25,544.46 0,0 103.89,173.23 103.89,199.07 0,25.84 74.07,51.86 74.07,51.86 l -9.18,-698.39 -1010.23,-2523.52 59.89,35.68 915.38,2107.58 -108.67,-3256.62 24.16,24.16 120.99,1971.51 19.16,174.05 221.96,-544.35 -212.25,639.55 43.39,1122.15 40.93,390.87 17.02,162.5 16.79,631.56 14.74,698.17 34.2,666.94 -295.18,-0.41 z"
       id="path9" />
    <path
       style="display:inline;fill:#30145a;fill-opacity:1"
       d="m 16592.32,3586.54 c 0,0 -355.42,147.54 -490.84,81.02 -135.42,-66.52 -296.64,8.22 -296.64,-126.19 0,-134.41 -62.33,-157.81 -62.33,-157.81 0,0 -67.66,-154.36 -37.64,-241.03 30.03,-86.67 244.42,-333.44 359.51,-430.35 115.09,-96.92 139.34,-165.21 285.05,-167.56 145.71,-2.35 630.84,-56.21 602.22,62.46 -28.62,118.67 407.48,299.37 407.48,399.95 0,100.58 2.35,534.35 -289.95,534.35 -292.3,0 -476.88,45.17 -476.88,45.17 z"
       id="path11" />
    <path
       style="display:inline;fill:#ab7a69;fill-rule:nonzero;fill-opacity:1"
       d="m 15974.38,2877.02 197.23,-231.58 44.69,-66.92 c -26.65,8.68 -60.15,49.17 -83.95,63.97 -98.53,62.69 -275.41,273.7 -376.62,385.92 -33.42,37.01 -58.52,114.39 -58.52,164.25 0,10.03 1.73,35.05 3.2,44.95 l 32.75,145.94 62.17,-300.77 179.05,-205.77 z"
       id="path12" />
    <path
       style="display:inline;fill:#30145a;fill-rule:nonzero;fill-opacity:1"
       d="m 17207.64,4620.64 c -134.93,-79.35 -632.99,-1079.27 -632.99,-1079.27 50.72,157.15 490.4,1131.9 753.06,1323.96 1.35,-0.01 14.89,-164.8 -120.06,-244.69 z"
       id="path13" />
    <path
       style="display:inline;fill:#30145a;fill-opacity:1"
       d="m 17846.61,3002.54 c 0,0 -195.59,-185.76 -398.77,-163.06 -203.19,22.69 -231.83,-132 -231.83,-253.08 0,-121.08 -539.3,-208.29 -511.19,-438.8 28.11,-230.52 29,-70.72 98.97,-252.31 69.97,-181.59 106.18,-167.66 319.25,-280.11 213.08,-112.45 301.37,-63.79 444.98,-131.26 143.62,-67.47 290.34,-112.84 335.32,-95.98 44.98,16.87 111.08,-6.54 241.32,31.04 130.24,37.57 191.57,152.01 191.57,207.34 v 1409.8 c 0,0 -109.51,57.61 -130.06,11.69 -20.55,-45.92 -123.27,-91.85 -176.45,-47.13 -53.18,44.72 -183.1,1.86 -183.1,1.86 z"
       id="path14" />
    <path
       style="display:inline;fill:#30145a;fill-opacity:1"
       d="m 17952.63,4865.33 c 0,0 87.75,62.09 192.02,-77.67 104.27,-139.76 160.17,-198.46 112.65,-301.88 -47.52,-103.42 -44.72,-159.57 -47.52,-282.43 -2.8,-122.87 -195.66,-243.06 -195.66,-271.01 0,-27.95 -121.51,114.73 -120.2,209.64 1.32,94.9 43.88,204.74 -35.85,307.68 -79.73,102.94 -38.15,238.33 0,312.85 38.15,74.52 94.55,102.82 94.55,102.82 z"
       id="path15" />
    <path
       style="display:inline;fill:#30145a;fill-opacity:1"
       d="m 16279.28,2160.63 c -400.69,329.06 -743.13,392.17 -686.31,109.73 56.82,-282.44 -459.39,-146.66 -485.26,-336.49 -25.86,-189.83 245.42,-485.29 420,-646.94 174.59,-161.66 -78.01,-287.74 541.09,-565.79 619.09,-278.05 753.64,-309.51 1090.84,-251.31 337.21,58.2 538.77,1.91 668.54,8.38 129.77,6.46 528.29,-172.87 528.29,192.77 0,365.64 0,581.98 0,581.98 0,0 -508.5,160.2 -1066.87,107.58 -558.37,-52.61 -951.98,744.38 -1010.33,800.09 z"
       id="path16" />
    <path
       style="display:inline;fill:#471c66;fill-opacity:1"
       d="m 16168.89,2245.75 c 0,0 -319.26,187.29 -368.4,-20.63 -49.14,-207.93 -10.32,-210.66 -224.47,-265.95 -214.15,-55.29 -185.9,-137.45 -157.72,-265.64 28.18,-128.19 143.03,-282.32 363.79,-592.74 220.76,-310.42 327.79,-465.7 673.1,-474.2 345.31,-8.5 269.26,-185.62 428.7,-180.36 159.44,5.26 83.33,-15.55 482.01,61.39 398.67,76.94 463.52,-17.02 569.82,-21.26 106.31,-4.25 386.63,37.02 386.63,37.02 0,0 -31.7,-83.53 -302.58,-108.42 -270.88,-24.89 -700.68,-81.49 -794.22,-102.88 -93.54,-21.39 -485.9,21.08 -679.02,124.62 -193.12,103.54 -591.6,239.3 -691.77,373.1 -100.17,133.8 -178.74,111.86 -223.92,239.65 -45.18,127.79 17.18,119.32 -77.93,184.84 -95.11,65.52 -345.8,350.08 -428.35,575.34 -82.56,225.26 133.87,245.42 292.71,265.45 158.83,20.03 167.9,92.15 179.08,173.28 11.17,81.13 -47.02,119.15 44.98,185.54 92,66.38 322.14,-5.17 322.14,-5.17 l 205.43,-182.97 z"
       id="path17" />
    <path
       style="display:inline;fill:#30145a;fill-opacity:1"
       d="m 15966.07,3587.54 c 0,0 34.02,-262.04 221.31,-221.31 187.28,40.73 127.32,-38.78 234.06,-148.71 106.74,-109.92 114.84,-164.56 391.28,-109.92 276.44,54.63 271.94,152.53 393.96,65.55 122.02,-86.98 152.47,-160.11 152.47,-160.11 0,0 10.17,273.33 -63.86,373.95 -74.03,100.62 -71.28,154.38 -226.1,154.38 -154.82,0 -301.34,8.6 -396.33,29.78 -95,21.18 -328.95,101.76 -401.64,107.69 -72.68,5.93 -119.67,-8.88 -205.12,-25.52 -85.45,-16.64 -100.04,-65.78 -100.04,-65.78 z"
       id="path18" />
    <path
       style="display:inline;fill:#30145a;fill-opacity:1"
       d="m 17353.5,3527.43 c 0,0 337.71,607.86 369.32,787.64 31.6,179.78 59.73,247.66 59.73,247.66 z"
       id="path19" />
    <path
       style="display:inline;fill:#30145a;fill-opacity:1"
       d="m 17671.52,5426.39 249.9,249.9 v -77.69 c 0,0 46.73,-46.66 0,486 -46.73,532.66 -94.95,679.01 -94.95,679.01 l -5.76,-1072.33 -149.18,-264.91 z"
       id="path29" />
    <path
       style="fill:none;fill-opacity:1;stroke-width:13.4313"
       d="m 15963.47,2428.73 -367.12,-180.3701 -340.329,-666.6059 -665.127,479.5283 1224.671,617.7895 z"
       id="path31" />
    <path
       id="path17-5"
       style="display:inline;fill:#000000;fill-opacity:0"
       d="m 15256.026,1581.7453 -18.19,13.1088 c -47.275,71.8385 -88.085,146.0708 -113.263,214.7737 -82.56,225.26 133.857,245.4222 292.697,265.4522 47.482,5.9878 81.562,16.6321 106.333,30.7793 z m 340.338,666.6062 c 11.17,81.13 -47.036,119.1512 44.964,185.5412 92,66.38 322.147,-5.1649 322.147,-5.1649 z" />
    <path
       id="path17-7"
       style="display:inline;fill:#ab7a69;fill-opacity:1"
       d="m 15788.122,882.05793 c -68.493,59.47329 -122.699,69.51093 -157.307,167.39877 -45.18,127.79 17.205,119.3133 -77.905,184.8333 -95.11,65.52 -345.8,350.083 -428.35,575.343 -18.593,50.7314 -22.047,91.06 -14.384,123.3271 19.888,-8.918 104.981,-73.2027 117.803,-91.132 10.567,-14.7775 17.015,-32.0845 25.724,-47.742 2.975,-5.3488 8.05,-9.3331 11.024,-14.6818 6.409,-11.5215 10.19,-24.3178 14.699,-36.7045 4.575,-12.5652 8.612,-28.2391 14.7,-40.4012 32.9,-65.7233 67.438,-131.9832 106.595,-194.5601 4.945,-7.9033 5.848,-17.9384 11.024,-25.6931 2.884,-4.3199 8.004,-6.8128 11.025,-11.0376 17.975,-25.1355 -2.664,-4.8819 14.699,-25.6931 19.08,-22.8684 43.54,-46.6919 66.172,-66.0681 4.651,-3.9821 10.367,-6.6848 14.699,-11.0114 4.332,-4.3267 6.694,-10.3814 11.025,-14.708 4.332,-4.3266 10.048,-7.0293 14.699,-11.0113 37.705,-32.2806 74.932,-72.188 106.595,-110.1398 13.849,-16.5986 27.102,-35.7869 36.748,-55.0567 5.138,-10.2624 8.348,-23.481 14.725,-33.0341 2.599,-3.8932 10.538,-12.6031 14.7,-14.6818 1.102,-0.5472 2.807,0.8653 3.674,0 1.837,-1.8356 -1.839,-9.1757 0,-11.0113 0.86,-0.8653 2.808,0.8653 3.675,0 2.221,-2.2186 15.984,-28.2868 18.374,-33.0603 1.102,-2.1891 -1.102,-5.1518 0,-7.3409 5.701,-11.3904 12.672,-21.6436 18.374,-33.034 1.102,-2.1892 -1.734,-5.6103 0,-7.3409 0.86,-0.8653 2.81,0.8652 3.675,0 1.734,-1.7307 0,-4.8933 0,-7.3409 0,-16.7125 -1.733,-0.2076 3.675,-11.0114 2.88,-5.7532 1.695,-36.15787 3.674,-44.07158 4.84,-19.33129 9.811,-39.18938 14.7,-58.7272 1.4,-5.59519 1.772,-19.24604 1.469,-34.60709 z" />
  </g>
  <metadata
     id="metadata32">
    <rdf:RDF>
      <cc:Work
         rdf:about="">
        <dc:title>Layer2</dc:title>
      </cc:Work>
    </rdf:RDF>
  </metadata>
</svg>
