<svg id="Ñëîé_1" data-name="Ñëîé 1" xmlns="http://www.w3.org/2000/svg" xmlns:xlink="http://www.w3.org/1999/xlink" viewBox="0 0 1366 768"><defs><linearGradient id="Áåçûìÿííûé_ãðàäèåíò_5" x1="675.8" y1="9.85" x2="683.8" y2="425.85" gradientUnits="userSpaceOnUse"><stop offset="0" stop-color="#7600ff"/><stop offset="1" stop-color="#fb9d50"/></linearGradient></defs><title>Layer8</title><rect width="1366" height="768" style="fill:url(#Áåçûìÿííûé_ãðàäèåíò_5)"/><circle cx="230.5" cy="135.5" r="37.51" style="fill:#ffe8c0"/><circle cx="487.8" cy="167.69" r="3.1" style="fill:#f6f6f6"/><circle cx="346.68" cy="80.79" r="3.1" style="fill:#f6f6f6"/><circle cx="754" cy="179" r="1.67" style="fill:#f6f6f6"/><circle cx="879.17" cy="233.8" r="1.67" style="fill:#f6f6f6"/><circle cx="19.75" cy="265.47" r="1.67" style="fill:#f6f6f6"/><circle cx="535.8" cy="316.15" r="1.67" style="fill:#f6f6f6"/><circle cx="631.81" cy="172.13" r="1.67" style="fill:#f6f6f6"/><circle cx="1141.86" cy="43.12" r="1.67" style="fill:#f6f6f6"/><circle cx="1072.86" cy="298.14" r="1.67" style="fill:#f6f6f6"/><circle cx="181.77" cy="169.13" r="1.67" style="fill:#f6f6f6"/><circle cx="529.8" cy="31.12" r="1.67" style="fill:#f6f6f6"/><circle cx="325.78" cy="271.14" r="1.67" style="fill:#f6f6f6"/><circle cx="1205.4" cy="224.1" r="1.67" style="fill:#f6f6f6"/><circle cx="29.79" cy="24.59" r="1.67" style="fill:#f6f6f6"/><circle cx="1276.88" cy="61.45" r="1.67" style="fill:#f6f6f6"/><circle cx="140" cy="25" r="3.1" style="fill:#f6f6f6"/><circle cx="77" cy="185" r="3.1" style="fill:#f6f6f6"/><circle cx="634.71" cy="77.79" r="3.1" style="fill:#f6f6f6"/><circle cx="490.8" cy="287.7" r="3.1" style="fill:#f6f6f6"/><circle cx="1119" cy="115" r="3.1" style="fill:#f6f6f6"/><circle cx="775.83" cy="33.78" r="2" style="fill:#f6f6f6"/><circle cx="941.9" cy="187" r="3.1" style="fill:#f6f6f6"/><circle cx="1079.57" cy="18.71" r="3.1" style="fill:#f6f6f6"/></svg>